<svg width="227" height="21" viewBox="0 0 227 21" fill="none" xmlns="http://www.w3.org/2000/svg">
<path d="M0 20.4358L7.11493 0.470154H15.1075L22.097 20.4358H14.3552L13.7284 17.9284H8.30597L7.6791 20.4358H0ZM9.52836 13.1955H12.506L11.8791 10.9388C11.5657 9.77911 11.3776 8.9015 11.2522 8.30597C11.1582 7.67911 11.0642 7.11493 11.0328 6.55075H10.9075C10.8761 7.08359 10.8134 7.67911 10.6881 8.30597C10.594 8.93284 10.3746 9.81045 10.0612 10.9388L9.52836 13.1955Z" fill="#231F20"/>
<path d="M33.7567 13.2896H30.6224V8.58809H41.6552C41.6866 8.99555 41.6866 9.30898 41.6866 9.49704C41.6866 9.6851 41.6866 9.87316 41.6866 10.0299C41.6866 11.1896 41.5925 12.2239 41.3731 13.1642C41.1537 14.1045 40.8403 14.9508 40.4328 15.6717C39.4299 17.3956 38.1134 18.6806 36.4836 19.5896C34.8851 20.4985 33.0358 20.9373 30.9985 20.9373C29.494 20.9373 28.0836 20.6866 26.7985 20.1851C25.5134 19.6836 24.3537 18.9314 23.3508 17.9597C22.3478 16.9881 21.5955 15.8597 21.094 14.606C20.5925 13.3523 20.3418 11.9732 20.3418 10.5C20.3418 8.99555 20.5925 7.61645 21.1254 6.36272C21.6269 5.10898 22.3791 3.98063 23.3821 3.00898C24.3851 2.03734 25.5134 1.2851 26.8299 0.783611C28.1149 0.282118 29.5254 0.0313721 31.0299 0.0313721C33.0672 0.0313721 34.8851 0.470178 36.4836 1.37913C38.0821 2.28809 39.3672 3.57316 40.3702 5.29704L33.9761 7.67913C33.6313 7.11495 33.2239 6.70749 32.7537 6.4254C32.2836 6.14331 31.7508 6.01794 31.1239 6.01794C30.0582 6.01794 29.2119 6.4254 28.5851 7.24033C27.9582 8.05525 27.6448 9.12092 27.6448 10.5C27.6448 11.9105 27.9582 13.0075 28.5851 13.7911C29.2119 14.5747 30.1209 14.9508 31.2806 14.9508C31.9702 14.9508 32.5343 14.7941 32.9731 14.512C33.4119 14.2299 33.6627 13.8224 33.7567 13.2896Z" fill="#231F20"/>
<path d="M42.7837 20.4358V0.470154H51.8106C54.4434 0.470154 56.418 1.03433 57.7971 2.19403C59.1762 3.35374 59.8658 5.01493 59.8658 7.17762C59.8658 8.58806 59.521 9.77911 58.8315 10.6881C58.1419 11.597 57.2016 12.1299 56.0106 12.2866L61.3389 20.4045H53.2837L49.8046 13.8224V20.4045L42.7837 20.4358ZM49.8359 5.61045V9.49702H50.9643C51.6538 9.49702 52.1553 9.3403 52.5315 8.99553C52.9076 8.65075 53.0956 8.1806 53.0956 7.58508C53.0956 6.95821 52.9076 6.45672 52.5315 6.11195C52.1553 5.76717 51.6538 5.61045 50.9643 5.61045H49.8359Z" fill="#231F20"/>
<path d="M81.5552 10.5C81.5552 11.9731 81.3045 13.3209 80.7716 14.5746C80.2388 15.8284 79.4866 16.9567 78.4836 17.9597C77.4806 18.9313 76.3209 19.6836 75.0358 20.1851C73.7194 20.7179 72.3403 20.9687 70.8672 20.9687C69.3627 20.9687 67.9836 20.7179 66.6672 20.1851C65.3821 19.6522 64.2224 18.9 63.2194 17.9284C62.2164 16.9567 61.4642 15.8597 60.9627 14.606C60.4612 13.3522 60.2104 11.9731 60.2104 10.5C60.2104 9.02687 60.4612 7.64776 60.9627 6.39403C61.4642 5.1403 62.2164 4.01194 63.2194 3.0403C64.2224 2.06866 65.3821 1.31642 66.6672 0.783582C67.9522 0.28209 69.3627 0 70.8672 0C72.3716 0 73.7821 0.250746 75.0672 0.783582C76.3522 1.28507 77.5119 2.03731 78.5149 3.0403C79.4866 4.01194 80.2388 5.1403 80.7716 6.39403C81.3045 7.64776 81.5552 9.02687 81.5552 10.5ZM70.8672 14.2612C71.8702 14.2612 72.6851 13.9164 73.3119 13.2269C73.9388 12.5373 74.2209 11.6284 74.2209 10.5C74.2209 9.3403 73.9075 8.43134 73.3119 7.74179C72.6851 7.05224 71.9015 6.70746 70.8672 6.70746C69.8328 6.70746 69.0493 7.05224 68.4224 7.74179C67.7955 8.43134 67.4821 9.37164 67.4821 10.5C67.4821 11.6284 67.7955 12.5373 68.4224 13.2269C69.0493 13.9164 69.8642 14.2612 70.8672 14.2612Z" fill="#231F20"/>
<path d="M82.8086 20.4358V0.470154H89.8295L96.0355 10.9075C95.9414 10.4373 95.9101 9.93583 95.8787 9.37165C95.8474 8.80747 95.8161 8.08657 95.8161 7.17762V0.470154H102.743V20.4358H95.6593L89.5161 10.0612C89.5787 10.5 89.6414 11.0015 89.6728 11.503C89.7041 12.0045 89.7355 12.6 89.7355 13.2269V20.4358H82.8086Z" fill="#A4BF00"/>
<path d="M105 20.4358V0.470154H118.352V5.89254H112.052V7.80448H117.788V12.9134H112.052V15.0134H118.54V20.4358H105Z" fill="#A4BF00"/>
<path d="M132.582 13.2896H129.448V8.58809H140.48C140.512 8.99555 140.512 9.30898 140.512 9.49704C140.512 9.6851 140.512 9.87316 140.512 10.0299C140.512 11.1896 140.418 12.2239 140.198 13.1642C139.979 14.1045 139.665 14.9508 139.258 15.6717C138.255 17.3956 136.939 18.6806 135.309 19.5896C133.71 20.4985 131.861 20.9373 129.824 20.9373C128.319 20.9373 126.909 20.6866 125.624 20.1851C124.339 19.6836 123.179 18.9314 122.176 17.9597C121.173 16.9881 120.421 15.8597 119.919 14.606C119.418 13.3523 119.167 11.9732 119.167 10.5C119.167 8.99555 119.418 7.61645 119.951 6.36272C120.452 5.10898 121.204 3.98063 122.207 3.00898C123.21 2.03734 124.339 1.2851 125.655 0.783611C126.94 0.282118 128.351 0.0313721 129.855 0.0313721C131.892 0.0313721 133.71 0.470178 135.309 1.37913C136.907 2.28809 138.192 3.57316 139.195 5.29704L132.801 7.67913C132.457 7.11495 132.049 6.70749 131.579 6.4254C131.109 6.14331 130.576 6.01794 129.949 6.01794C128.883 6.01794 128.037 6.4254 127.41 7.24033C126.783 8.05525 126.47 9.12092 126.47 10.5C126.47 11.9105 126.783 13.0075 127.41 13.7911C128.037 14.5747 128.946 14.9508 130.106 14.9508C130.795 14.9508 131.36 14.7941 131.798 14.512C132.268 14.2299 132.519 13.8224 132.582 13.2896Z" fill="#A4BF00"/>
<path d="M162.107 10.5C162.107 11.9731 161.856 13.3209 161.323 14.5746C160.791 15.8284 160.038 16.9567 159.035 17.9597C158.032 18.9313 156.873 19.6836 155.588 20.1851C154.271 20.7179 152.892 20.9687 151.419 20.9687C149.914 20.9687 148.535 20.7179 147.219 20.1851C145.934 19.6522 144.774 18.9 143.771 17.9284C142.768 16.9567 142.016 15.8597 141.514 14.606C141.013 13.3522 140.762 11.9731 140.762 10.5C140.762 9.02687 141.013 7.64776 141.514 6.39403C142.016 5.1403 142.768 4.01194 143.771 3.0403C144.774 2.06866 145.934 1.31642 147.219 0.783582C148.504 0.28209 149.914 0 151.419 0C152.923 0 154.334 0.250746 155.619 0.783582C156.904 1.28507 158.064 2.03731 159.067 3.0403C160.038 4.01194 160.791 5.1403 161.323 6.39403C161.856 7.64776 162.107 9.02687 162.107 10.5ZM151.45 14.2612C152.453 14.2612 153.268 13.9164 153.895 13.2269C154.522 12.5373 154.804 11.6284 154.804 10.5C154.804 9.3403 154.491 8.43134 153.895 7.74179C153.3 7.05224 152.485 6.70746 151.45 6.70746C150.416 6.70746 149.632 7.05224 149.005 7.74179C148.379 8.43134 148.065 9.37164 148.065 10.5C148.065 11.6284 148.379 12.5373 149.005 13.2269C149.601 13.9164 150.416 14.2612 151.45 14.2612Z" fill="#A4BF00"/>
<path d="M177.873 8.4C177.215 7.77313 176.557 7.30298 175.867 6.98955C175.177 6.67612 174.457 6.5194 173.704 6.5194C172.545 6.5194 171.573 6.89552 170.883 7.61641C170.162 8.33731 169.818 9.30895 169.818 10.5C169.818 11.6597 170.162 12.6 170.852 13.3209C171.542 14.0104 172.451 14.3552 173.579 14.3552C174.268 14.3552 174.958 14.1985 175.679 13.9164C176.4 13.6343 177.183 13.1642 178.03 12.506L177.81 20.0284C177.027 20.3418 176.243 20.5925 175.46 20.7493C174.676 20.906 173.892 21 173.109 21C172.137 21 171.197 20.906 170.288 20.6866C169.379 20.4672 168.564 20.1537 167.843 19.7463C166.088 18.7433 164.74 17.4269 163.831 15.891C162.922 14.3239 162.483 12.5373 162.483 10.5313C162.483 9.02686 162.734 7.64776 163.267 6.39403C163.768 5.10895 164.521 4.01194 165.524 3.0403C166.527 2.06865 167.655 1.31641 168.971 0.814922C170.288 0.313429 171.698 0.0626831 173.203 0.0626831C174.018 0.0626831 174.801 0.156713 175.585 0.313429C176.368 0.470146 177.152 0.720892 177.873 1.06567V8.4Z" fill="#A4BF00"/>
<path d="M179.973 20.4358V0.470154H187.276V20.4358H179.973Z" fill="#A4BF00"/>
<path d="M210.062 10.5C210.062 11.9731 209.811 13.3209 209.278 14.5746C208.746 15.8284 207.993 16.9567 206.99 17.9597C205.987 18.9313 204.828 19.6836 203.543 20.1851C202.226 20.7179 200.847 20.9687 199.374 20.9687C197.87 20.9687 196.49 20.7179 195.174 20.1851C193.889 19.6522 192.729 18.9 191.726 17.9284C190.723 16.9567 189.971 15.8597 189.47 14.606C188.968 13.3522 188.717 11.9731 188.717 10.5C188.717 9.02687 188.968 7.64776 189.47 6.39403C189.971 5.1403 190.723 4.01194 191.726 3.0403C192.729 2.06866 193.889 1.31642 195.174 0.783582C196.459 0.28209 197.87 0 199.374 0C200.878 0 202.289 0.250746 203.574 0.783582C204.859 1.28507 206.019 2.03731 207.022 3.0403C207.993 4.01194 208.746 5.1403 209.278 6.39403C209.811 7.64776 210.062 9.02687 210.062 10.5ZM199.374 14.2612C200.377 14.2612 201.192 13.9164 201.819 13.2269C202.446 12.5373 202.728 11.6284 202.728 10.5C202.728 9.3403 202.414 8.43134 201.819 7.74179C201.223 7.05224 200.408 6.70746 199.374 6.70746C198.34 6.70746 197.556 7.05224 196.929 7.74179C196.302 8.43134 195.989 9.37164 195.989 10.5C195.989 11.6284 196.302 12.5373 196.929 13.2269C197.556 13.9164 198.371 14.2612 199.374 14.2612Z" fill="#A4BF00"/>
<path d="M209.561 18.7433L211.849 13.1642C212.883 13.8851 213.792 14.4179 214.607 14.7314C215.422 15.0448 216.174 15.2329 216.864 15.2329C217.366 15.2329 217.742 15.1388 218.024 14.9508C218.306 14.7627 218.431 14.512 218.431 14.1985C218.431 13.6344 217.742 13.2269 216.331 12.9448C215.861 12.8508 215.516 12.7567 215.266 12.7254C213.761 12.3493 212.633 11.7224 211.849 10.7821C211.066 9.84182 210.658 8.71346 210.658 7.33435C210.658 5.20301 211.442 3.44779 212.977 2.10003C214.513 0.752264 216.519 0.0940552 219.027 0.0940552C220.186 0.0940552 221.283 0.250772 222.412 0.532861C223.509 0.846294 224.637 1.2851 225.766 1.88062L223.571 7.11495C222.882 6.61346 222.192 6.206 221.503 5.95525C220.813 5.67316 220.124 5.54779 219.466 5.54779C218.964 5.54779 218.588 5.64182 218.306 5.79853C218.024 5.95525 217.898 6.206 217.898 6.48809C217.898 7.05226 218.901 7.55376 220.876 7.96122C221.189 8.02391 221.44 8.08659 221.597 8.11794C222.976 8.43137 224.042 9.05823 224.857 9.99853C225.64 10.9388 226.048 12.0985 226.048 13.4463C226.048 15.6403 225.264 17.4582 223.666 18.8687C222.067 20.2791 219.998 20.9687 217.428 20.9687C216.112 20.9687 214.795 20.7806 213.51 20.4045C212.225 20.0284 210.877 19.4642 209.561 18.7433Z" fill="#A4BF00"/>
</svg>
