<svg width="42" height="20" viewBox="0 0 42 20" fill="none" xmlns="http://www.w3.org/2000/svg">
<path d="M0 19.9657L7.11493 0H15.1075L22.097 19.9657H14.3552L13.7284 17.4582H8.30597L7.6791 19.9657H0ZM9.52836 12.7254H12.506L11.8791 10.4687C11.5657 9.30896 11.3776 8.43134 11.2522 7.83582C11.1582 7.20896 11.0642 6.64478 11.0328 6.0806H10.9075C10.8761 6.61343 10.8134 7.20896 10.6881 7.83582C10.594 8.46269 10.3746 9.3403 10.0612 10.4687L9.52836 12.7254Z" fill="#231F20"/>
<path d="M22 19.9657V0H29.0209L35.2269 10.4373C35.1328 9.96716 35.1015 9.46567 35.0701 8.90149C35.0388 8.33731 35.0075 7.61642 35.0075 6.70746V0H41.9343V19.9657H34.8507L28.7075 9.59104C28.7701 10.0299 28.8328 10.5313 28.8642 11.0328C28.8955 11.5343 28.9269 12.1299 28.9269 12.7567V19.9657H22Z" fill="#A4BF00"/>
</svg>
