<svg width="227" height="21" viewBox="0 0 227 21" fill="none" xmlns="http://www.w3.org/2000/svg">
<path d="M0 20.4359L7.11493 0.470215H15.1075L22.097 20.4359H14.3552L13.7284 17.9284H8.30597L7.6791 20.4359H0ZM9.52836 13.1956H12.506L11.8791 10.9389C11.5657 9.77917 11.3776 8.90156 11.2522 8.30604C11.1582 7.67917 11.0642 7.11499 11.0328 6.55081H10.9075C10.8761 7.08365 10.8134 7.67917 10.6881 8.30604C10.594 8.9329 10.3746 9.81051 10.0612 10.9389L9.52836 13.1956Z" fill="#6A6A6A"/>
<path d="M33.7567 13.2895H30.6224V8.58797H41.6552C41.6866 8.99543 41.6866 9.30886 41.6866 9.49692C41.6866 9.68498 41.6866 9.87304 41.6866 10.0298C41.6866 11.1895 41.5925 12.2238 41.3731 13.1641C41.1537 14.1044 40.8403 14.9507 40.4328 15.6715C39.4299 17.3954 38.1134 18.6805 36.4836 19.5895C34.8851 20.4984 33.0358 20.9372 30.9985 20.9372C29.494 20.9372 28.0836 20.6865 26.7985 20.185C25.5134 19.6835 24.3537 18.9313 23.3508 17.9596C22.3478 16.988 21.5955 15.8596 21.094 14.6059C20.5925 13.3521 20.3418 11.973 20.3418 10.4999C20.3418 8.99543 20.5925 7.61632 21.1254 6.36259C21.6269 5.10886 22.3791 3.9805 23.3821 3.00886C24.3851 2.03722 25.5134 1.28498 26.8299 0.783489C28.1149 0.281996 29.5254 0.03125 31.0299 0.03125C33.0672 0.03125 34.8851 0.470056 36.4836 1.37901C38.0821 2.28797 39.3672 3.57304 40.3702 5.29692L33.9761 7.67901C33.6313 7.11483 33.2239 6.70737 32.7537 6.42528C32.2836 6.14319 31.7508 6.01782 31.1239 6.01782C30.0582 6.01782 29.2119 6.42528 28.5851 7.24021C27.9582 8.05513 27.6448 9.1208 27.6448 10.4999C27.6448 11.9104 27.9582 13.0074 28.5851 13.791C29.2119 14.5745 30.1209 14.9507 31.2806 14.9507C31.9702 14.9507 32.5343 14.7939 32.9731 14.5118C33.4119 14.2298 33.6627 13.8223 33.7567 13.2895Z" fill="#6A6A6A"/>
<path d="M42.7837 20.4359V0.470215H51.8106C54.4434 0.470215 56.418 1.03439 57.7971 2.1941C59.1762 3.3538 59.8658 5.01499 59.8658 7.17768C59.8658 8.58813 59.521 9.77917 58.8315 10.6881C58.1419 11.5971 57.2016 12.1299 56.0106 12.2866L61.3389 20.4045H53.2837L49.8046 13.8225V20.4045L42.7837 20.4359ZM49.8359 5.61051V9.49708H50.9643C51.6538 9.49708 52.1553 9.34036 52.5315 8.99559C52.9076 8.65081 53.0956 8.18066 53.0956 7.58514C53.0956 6.95827 52.9076 6.45678 52.5315 6.11201C52.1553 5.76723 51.6538 5.61051 50.9643 5.61051H49.8359Z" fill="#6A6A6A"/>
<path d="M81.5552 10.5C81.5552 11.9731 81.3045 13.3209 80.7716 14.5746C80.2388 15.8284 79.4866 16.9567 78.4836 17.9597C77.4806 18.9313 76.3209 19.6836 75.0358 20.1851C73.7194 20.7179 72.3403 20.9687 70.8672 20.9687C69.3627 20.9687 67.9836 20.7179 66.6672 20.1851C65.3821 19.6522 64.2224 18.9 63.2194 17.9284C62.2164 16.9567 61.4642 15.8597 60.9627 14.606C60.4612 13.3522 60.2104 11.9731 60.2104 10.5C60.2104 9.02687 60.4612 7.64776 60.9627 6.39403C61.4642 5.1403 62.2164 4.01194 63.2194 3.0403C64.2224 2.06866 65.3821 1.31642 66.6672 0.783582C67.9522 0.28209 69.3627 0 70.8672 0C72.3716 0 73.7821 0.250746 75.0672 0.783582C76.3522 1.28507 77.5119 2.03731 78.5149 3.0403C79.4866 4.01194 80.2388 5.1403 80.7716 6.39403C81.3045 7.64776 81.5552 9.02687 81.5552 10.5ZM70.8672 14.2612C71.8702 14.2612 72.6851 13.9164 73.3119 13.2269C73.9388 12.5373 74.2209 11.6284 74.2209 10.5C74.2209 9.3403 73.9075 8.43134 73.3119 7.74179C72.6851 7.05224 71.9015 6.70746 70.8672 6.70746C69.8328 6.70746 69.0493 7.05224 68.4224 7.74179C67.7955 8.43134 67.4821 9.37164 67.4821 10.5C67.4821 11.6284 67.7955 12.5373 68.4224 13.2269C69.0493 13.9164 69.8642 14.2612 70.8672 14.2612Z" fill="#6A6A6A"/>
<path d="M82.8086 20.4359V0.470215H89.8295L96.0355 10.9075C95.9414 10.4374 95.9101 9.93589 95.8787 9.37171C95.8474 8.80753 95.8161 8.08663 95.8161 7.17768V0.470215H102.743V20.4359H95.6593L89.5161 10.0613C89.5787 10.5001 89.6414 11.0016 89.6728 11.5031C89.7041 12.0045 89.7355 12.6001 89.7355 13.2269V20.4359H82.8086Z" fill="#AEAEAE"/>
<path d="M105 20.4359V0.470215H118.352V5.8926H112.052V7.80454H117.788V12.9135H112.052V15.0135H118.54V20.4359H105Z" fill="#AEAEAE"/>
<path d="M132.582 13.2895H129.448V8.58797H140.48C140.512 8.99543 140.512 9.30886 140.512 9.49692C140.512 9.68498 140.512 9.87304 140.512 10.0298C140.512 11.1895 140.418 12.2238 140.198 13.1641C139.979 14.1044 139.665 14.9507 139.258 15.6715C138.255 17.3954 136.939 18.6805 135.309 19.5895C133.71 20.4984 131.861 20.9372 129.824 20.9372C128.319 20.9372 126.909 20.6865 125.624 20.185C124.339 19.6835 123.179 18.9313 122.176 17.9596C121.173 16.988 120.421 15.8596 119.919 14.6059C119.418 13.3521 119.167 11.973 119.167 10.4999C119.167 8.99543 119.418 7.61632 119.951 6.36259C120.452 5.10886 121.204 3.9805 122.207 3.00886C123.21 2.03722 124.339 1.28498 125.655 0.783489C126.94 0.281996 128.351 0.03125 129.855 0.03125C131.892 0.03125 133.71 0.470056 135.309 1.37901C136.907 2.28797 138.192 3.57304 139.195 5.29692L132.801 7.67901C132.457 7.11483 132.049 6.70737 131.579 6.42528C131.109 6.14319 130.576 6.01782 129.949 6.01782C128.883 6.01782 128.037 6.42528 127.41 7.24021C126.783 8.05513 126.47 9.1208 126.47 10.4999C126.47 11.9104 126.783 13.0074 127.41 13.791C128.037 14.5745 128.946 14.9507 130.106 14.9507C130.795 14.9507 131.36 14.7939 131.798 14.5118C132.268 14.2298 132.519 13.8223 132.582 13.2895Z" fill="#AEAEAE"/>
<path d="M162.107 10.5C162.107 11.9731 161.856 13.3209 161.323 14.5746C160.791 15.8284 160.038 16.9567 159.035 17.9597C158.032 18.9313 156.873 19.6836 155.588 20.1851C154.271 20.7179 152.892 20.9687 151.419 20.9687C149.914 20.9687 148.535 20.7179 147.219 20.1851C145.934 19.6522 144.774 18.9 143.771 17.9284C142.768 16.9567 142.016 15.8597 141.514 14.606C141.013 13.3522 140.762 11.9731 140.762 10.5C140.762 9.02687 141.013 7.64776 141.514 6.39403C142.016 5.1403 142.768 4.01194 143.771 3.0403C144.774 2.06866 145.934 1.31642 147.219 0.783582C148.504 0.28209 149.914 0 151.419 0C152.923 0 154.334 0.250746 155.619 0.783582C156.904 1.28507 158.064 2.03731 159.067 3.0403C160.038 4.01194 160.791 5.1403 161.323 6.39403C161.856 7.64776 162.107 9.02687 162.107 10.5ZM151.45 14.2612C152.453 14.2612 153.268 13.9164 153.895 13.2269C154.522 12.5373 154.804 11.6284 154.804 10.5C154.804 9.3403 154.491 8.43134 153.895 7.74179C153.3 7.05224 152.485 6.70746 151.45 6.70746C150.416 6.70746 149.632 7.05224 149.005 7.74179C148.379 8.43134 148.065 9.37164 148.065 10.5C148.065 11.6284 148.379 12.5373 149.005 13.2269C149.601 13.9164 150.416 14.2612 151.45 14.2612Z" fill="#AEAEAE"/>
<path d="M177.873 8.40006C177.215 7.77319 176.557 7.30304 175.867 6.98961C175.177 6.67618 174.457 6.51946 173.704 6.51946C172.545 6.51946 171.573 6.89558 170.883 7.61648C170.162 8.33737 169.818 9.30901 169.818 10.5001C169.818 11.6598 170.162 12.6001 170.852 13.321C171.542 14.0105 172.451 14.3553 173.579 14.3553C174.268 14.3553 174.958 14.1986 175.679 13.9165C176.4 13.6344 177.183 13.1642 178.03 12.506L177.81 20.0284C177.027 20.3418 176.243 20.5926 175.46 20.7493C174.676 20.906 173.892 21.0001 173.109 21.0001C172.137 21.0001 171.197 20.906 170.288 20.6866C169.379 20.4672 168.564 20.1538 167.843 19.7463C166.088 18.7433 164.74 17.4269 163.831 15.8911C162.922 14.3239 162.483 12.5374 162.483 10.5314C162.483 9.02692 162.734 7.64782 163.267 6.39409C163.768 5.10901 164.521 4.012 165.524 3.04036C166.527 2.06871 167.655 1.31648 168.971 0.814983C170.288 0.31349 171.698 0.0627441 173.203 0.0627441C174.018 0.0627441 174.801 0.156774 175.585 0.31349C176.368 0.470207 177.152 0.720953 177.873 1.06573V8.40006Z" fill="#AEAEAE"/>
<path d="M179.973 20.4359V0.470215H187.276V20.4359H179.973Z" fill="#AEAEAE"/>
<path d="M210.062 10.5C210.062 11.9731 209.811 13.3209 209.278 14.5746C208.746 15.8284 207.993 16.9567 206.99 17.9597C205.987 18.9313 204.828 19.6836 203.543 20.1851C202.226 20.7179 200.847 20.9687 199.374 20.9687C197.87 20.9687 196.49 20.7179 195.174 20.1851C193.889 19.6522 192.729 18.9 191.726 17.9284C190.723 16.9567 189.971 15.8597 189.47 14.606C188.968 13.3522 188.717 11.9731 188.717 10.5C188.717 9.02687 188.968 7.64776 189.47 6.39403C189.971 5.1403 190.723 4.01194 191.726 3.0403C192.729 2.06866 193.889 1.31642 195.174 0.783582C196.459 0.28209 197.87 0 199.374 0C200.878 0 202.289 0.250746 203.574 0.783582C204.859 1.28507 206.019 2.03731 207.022 3.0403C207.993 4.01194 208.746 5.1403 209.278 6.39403C209.811 7.64776 210.062 9.02687 210.062 10.5ZM199.374 14.2612C200.377 14.2612 201.192 13.9164 201.819 13.2269C202.446 12.5373 202.728 11.6284 202.728 10.5C202.728 9.3403 202.414 8.43134 201.819 7.74179C201.223 7.05224 200.408 6.70746 199.374 6.70746C198.34 6.70746 197.556 7.05224 196.929 7.74179C196.302 8.43134 195.989 9.37164 195.989 10.5C195.989 11.6284 196.302 12.5373 196.929 13.2269C197.556 13.9164 198.371 14.2612 199.374 14.2612Z" fill="#AEAEAE"/>
<path d="M209.561 18.7432L211.849 13.1641C212.883 13.885 213.792 14.4179 214.607 14.7313C215.422 15.0447 216.174 15.2328 216.864 15.2328C217.366 15.2328 217.742 15.1388 218.024 14.9507C218.306 14.7627 218.431 14.5119 218.431 14.1985C218.431 13.6343 217.742 13.2268 216.331 12.9447C215.861 12.8507 215.516 12.7567 215.266 12.7253C213.761 12.3492 212.633 11.7224 211.849 10.7821C211.066 9.84176 210.658 8.7134 210.658 7.33429C210.658 5.20295 211.442 3.44773 212.977 2.09996C214.513 0.752203 216.519 0.0939941 219.027 0.0939941C220.186 0.0939941 221.283 0.250711 222.412 0.5328C223.509 0.846233 224.637 1.28504 225.766 1.88056L223.571 7.11489C222.882 6.6134 222.192 6.20594 221.503 5.95519C220.813 5.6731 220.124 5.54773 219.466 5.54773C218.964 5.54773 218.588 5.64176 218.306 5.79847C218.024 5.95519 217.898 6.20594 217.898 6.48802C217.898 7.0522 218.901 7.5537 220.876 7.96116C221.189 8.02385 221.44 8.08653 221.597 8.11788C222.976 8.43131 224.042 9.05817 224.857 9.99847C225.64 10.9388 226.048 12.0985 226.048 13.4462C226.048 15.6403 225.264 17.4582 223.666 18.8686C222.067 20.2791 219.998 20.9686 217.428 20.9686C216.112 20.9686 214.795 20.7806 213.51 20.4044C212.225 20.0283 210.877 19.4641 209.561 18.7432Z" fill="#AEAEAE"/>
</svg>
