<svg width="22" height="22" viewBox="0 0 22 22" fill="none" xmlns="http://www.w3.org/2000/svg">
<path d="M13.0625 17.875C13.0625 18.422 12.8452 18.9466 12.4584 19.3334C12.0716 19.7202 11.547 19.9375 11 19.9375C10.453 19.9375 9.92839 19.7202 9.54159 19.3334C9.1548 18.9466 8.9375 18.422 8.9375 17.875C8.9375 17.328 9.1548 16.8034 9.54159 16.4166C9.92839 16.0298 10.453 15.8125 11 15.8125C11.547 15.8125 12.0716 16.0298 12.4584 16.4166C12.8452 16.8034 13.0625 17.328 13.0625 17.875ZM13.0625 11C13.0625 11.547 12.8452 12.0716 12.4584 12.4584C12.0716 12.8452 11.547 13.0625 11 13.0625C10.453 13.0625 9.92839 12.8452 9.54159 12.4584C9.1548 12.0716 8.9375 11.547 8.9375 11C8.9375 10.453 9.1548 9.92839 9.54159 9.54159C9.92839 9.1548 10.453 8.9375 11 8.9375C11.547 8.9375 12.0716 9.1548 12.4584 9.54159C12.8452 9.92839 13.0625 10.453 13.0625 11ZM13.0625 4.125C13.0625 4.67201 12.8452 5.19661 12.4584 5.58341C12.0716 5.9702 11.547 6.1875 11 6.1875C10.453 6.1875 9.92839 5.9702 9.54159 5.58341C9.1548 5.19661 8.9375 4.67201 8.9375 4.125C8.9375 3.57799 9.1548 3.05339 9.54159 2.66659C9.92839 2.2798 10.453 2.0625 11 2.0625C11.547 2.0625 12.0716 2.2798 12.4584 2.66659C12.8452 3.05339 13.0625 3.57799 13.0625 4.125Z" fill="#A4BF00"/>
<path d="M20.125 17.875C20.125 18.422 19.9077 18.9466 19.5209 19.3334C19.1341 19.7202 18.6095 19.9375 18.0625 19.9375C17.5155 19.9375 16.9909 19.7202 16.6041 19.3334C16.2173 18.9466 16 18.422 16 17.875C16 17.328 16.2173 16.8034 16.6041 16.4166C16.9909 16.0298 17.5155 15.8125 18.0625 15.8125C18.6095 15.8125 19.1341 16.0298 19.5209 16.4166C19.9077 16.8034 20.125 17.328 20.125 17.875ZM20.125 11C20.125 11.547 19.9077 12.0716 19.5209 12.4584C19.1341 12.8452 18.6095 13.0625 18.0625 13.0625C17.5155 13.0625 16.9909 12.8452 16.6041 12.4584C16.2173 12.0716 16 11.547 16 11C16 10.453 16.2173 9.92839 16.6041 9.54159C16.9909 9.1548 17.5155 8.9375 18.0625 8.9375C18.6095 8.9375 19.1341 9.1548 19.5209 9.54159C19.9077 9.92839 20.125 10.453 20.125 11ZM20.125 4.125C20.125 4.67201 19.9077 5.19661 19.5209 5.58341C19.1341 5.9702 18.6095 6.1875 18.0625 6.1875C17.5155 6.1875 16.9909 5.9702 16.6041 5.58341C16.2173 5.19661 16 4.67201 16 4.125C16 3.57799 16.2173 3.05339 16.6041 2.66659C16.9909 2.2798 17.5155 2.0625 18.0625 2.0625C18.6095 2.0625 19.1341 2.2798 19.5209 2.66659C19.9077 3.05339 20.125 3.57799 20.125 4.125Z" fill="#A4BF00"/>
<path d="M6.125 17.875C6.125 18.422 5.9077 18.9466 5.52091 19.3334C5.13411 19.7202 4.60951 19.9375 4.0625 19.9375C3.51549 19.9375 2.99089 19.7202 2.60409 19.3334C2.2173 18.9466 2 18.422 2 17.875C2 17.328 2.2173 16.8034 2.60409 16.4166C2.99089 16.0298 3.51549 15.8125 4.0625 15.8125C4.60951 15.8125 5.13411 16.0298 5.52091 16.4166C5.9077 16.8034 6.125 17.328 6.125 17.875ZM6.125 11C6.125 11.547 5.9077 12.0716 5.52091 12.4584C5.13411 12.8452 4.60951 13.0625 4.0625 13.0625C3.51549 13.0625 2.99089 12.8452 2.60409 12.4584C2.2173 12.0716 2 11.547 2 11C2 10.453 2.2173 9.92839 2.60409 9.54159C2.99089 9.1548 3.51549 8.9375 4.0625 8.9375C4.60951 8.9375 5.13411 9.1548 5.52091 9.54159C5.9077 9.92839 6.125 10.453 6.125 11ZM6.125 4.125C6.125 4.67201 5.9077 5.19661 5.52091 5.58341C5.13411 5.9702 4.60951 6.1875 4.0625 6.1875C3.51549 6.1875 2.99089 5.9702 2.60409 5.58341C2.2173 5.19661 2 4.67201 2 4.125C2 3.57799 2.2173 3.05339 2.60409 2.66659C2.99089 2.2798 3.51549 2.0625 4.0625 2.0625C4.60951 2.0625 5.13411 2.2798 5.52091 2.66659C5.9077 3.05339 6.125 3.57799 6.125 4.125Z" fill="#A4BF00"/>
</svg>
